<?xml version="1.0" encoding="utf-8"?>
<svg viewBox="128.679 206.47 165.458 43.654" xmlns="http://www.w3.org/2000/svg">
  <g transform="matrix(0.008037, 0, 0, -0.008037, 114.951561, 261.501221)" fill="#000000" stroke="none" style="">
    <path d="M13710 6544 l0 -309 383 -149 c726 -283 789 -308 780 -316 -4 -4 -268 -104 -585 -221 l-578 -214 0 -312 c0 -172 4 -313 8 -313 4 0 457 182 1007 404 l1000 404 3 258 2 259 -997 403 c-549 222 -1004 406 -1010 409 -10 4 -13 -60 -13 -303z"/>
    <path d="M14995 4541 c-22 -9 -167 -69 -322 -132 l-283 -114 0 -222 0 -223 -135 0 -135 0 0 -250 0 -250 135 0 c74 0 136 -1 137 -2 1 -2 5 -318 8 -703 6 -627 8 -706 24 -759 45 -151 151 -294 263 -354 208 -110 511 -131 818 -58 19 5 20 13 20 261 0 140 -2 255 -5 255 -3 0 -39 -7 -80 -16 -89 -19 -221 -14 -267 9 -49 26 -90 80 -102 137 -7 34 -11 250 -11 640 l0 590 225 0 225 0 -2 243 -3 242 -222 3 -223 2 0 360 c0 282 -3 360 -12 359 -7 0 -31 -8 -53 -18z"/>
    <path d="M2620 3889 c-360 -38 -639 -215 -761 -485 -35 -76 -69 -201 -69 -251 l0 -33 313 0 314 0 16 58 c32 114 104 193 209 228 38 12 74 15 151 12 128 -5 188 -29 252 -100 61 -68 79 -131 80 -278 l0 -115 -295 -6 c-323 -7 -417 -18 -574 -70 -231 -77 -388 -198 -465 -360 -71 -146 -102 -352 -71 -454 5 -16 19 -68 30 -115 30 -127 71 -202 161 -292 62 -62 95 -85 170 -122 153 -74 348 -104 518 -81 201 29 345 97 467 222 40 40 75 73 78 73 3 0 6 -56 6 -125 l0 -125 320 0 321 0 -3 883 c-3 877 -4 882 -26 962 -77 279 -271 460 -575 539 -164 43 -367 55 -567 35z m507 -1556 c-6 -184 -19 -230 -84 -303 -120 -134 -381 -182 -544 -99 -48 24 -103 89 -117 138 -15 49 -15 149 -1 206 20 80 116 161 224 190 40 11 218 21 389 23 l139 2 -6 -157z"/>
    <path d="M7618 3890 c-410 -48 -731 -286 -882 -652 -80 -194 -112 -391 -103 -647 6 -187 23 -297 68 -439 97 -304 282 -514 559 -633 298 -128 704 -131 995 -8 222 95 404 276 491 490 36 89 74 242 74 300 l0 49 -296 -2 -296 -3 -22 -70 c-66 -205 -180 -317 -354 -347 -196 -33 -371 57 -456 235 -69 144 -91 290 -83 567 4 174 7 205 31 285 65 217 177 334 351 366 176 33 339 -37 413 -176 8 -16 28 -66 42 -110 l27 -80 318 -3 317 -2 -7 62 c-16 139 -83 317 -163 435 -51 75 -171 189 -249 236 -206 125 -493 179 -775 147z"/>
    <path d="M10144 3889 c-179 -11 -297 -41 -438 -110 -301 -149 -494 -417 -578 -802 -19 -89 -22 -132 -22 -332 0 -174 4 -252 17 -321 48 -259 147 -455 308 -610 90 -86 146 -125 252 -174 169 -78 341 -114 547 -113 245 1 408 36 595 128 245 121 406 326 470 597 l13 58 -306 0 -307 0 -18 -44 c-49 -119 -138 -201 -260 -238 -57 -17 -87 -20 -181 -16 -99 4 -119 8 -179 35 -163 77 -258 242 -280 485 l-6 58 772 2 772 3 -2 220 c-1 242 -15 357 -59 497 -81 257 -236 445 -459 557 -197 98 -399 135 -651 120z m201 -460 c118 -22 207 -88 257 -191 33 -67 56 -156 60 -233 l3 -60 -441 -3 -441 -2 9 52 c60 335 258 492 553 437z"/>
    <path d="M12965 3890 c-221 -35 -434 -162 -535 -321 -18 -27 -36 -49 -41 -49 -5 0 -9 72 -9 160 l0 160 -325 0 -325 0 0 -1185 0 -1185 288 0 c158 0 304 3 325 6 l37 7 0 711 c0 391 4 747 9 791 15 123 44 189 115 261 85 85 144 107 291 108 140 1 199 -17 265 -84 57 -56 78 -113 90 -242 5 -51 10 -420 10 -820 l0 -728 325 0 325 0 0 869 c0 939 0 939 -55 1100 -39 115 -84 191 -160 267 -80 81 -156 122 -280 154 -92 24 -261 33 -350 20z"/>
    <path d="M21015 3884 c-363 -56 -639 -253 -799 -572 -89 -177 -125 -343 -133 -613 -8 -279 21 -461 105 -657 99 -231 262 -397 496 -508 351 -166 854 -147 1174 44 195 117 329 285 396 500 38 122 37 128 -26 136 -29 3 -164 6 -300 6 l-247 0 -34 -74 c-20 -42 -53 -92 -77 -116 -128 -128 -388 -159 -562 -68 -142 75 -228 237 -253 475 l-6 63 773 2 773 3 -1 215 c-1 248 -16 358 -70 520 -72 215 -180 362 -353 479 -216 147 -553 212 -856 165z m317 -465 c77 -17 137 -50 191 -108 68 -73 105 -169 120 -318 l6 -53 -439 0 -440 0 0 28 c0 46 28 142 65 219 54 116 140 195 248 228 53 17 179 19 249 4z"/>
    <path d="M5115 3874 c-250 -38 -462 -142 -617 -302 -176 -182 -284 -417 -318 -692 -16 -135 -14 -396 4 -515 51 -340 208 -605 449 -763 160 -103 318 -154 556 -176 80 -8 150 -12 155 -10 6 1 61 8 122 14 147 14 259 43 369 95 253 120 419 325 495 610 11 44 24 108 27 143 l6 62 -299 -2 -298 -3 -22 -71 c-57 -188 -159 -299 -309 -338 -158 -42 -330 5 -431 117 -124 138 -180 407 -155 743 12 172 28 240 79 343 84 172 247 266 425 246 168 -18 266 -105 326 -287 l28 -83 318 -3 317 -2 -7 62 c-15 134 -83 318 -156 425 -18 27 -58 74 -88 107 -215 227 -601 338 -976 280z"/>
    <path d="M19770 3873 c-89 -9 -192 -38 -270 -76 -112 -54 -224 -164 -292 -287 l-48 -85 0 208 0 207 -330 0 -330 0 0 -1185 0 -1185 329 0 330 0 4 672 c4 734 2 716 63 827 75 138 263 233 489 247 50 3 105 7 123 10 l32 5 0 324 0 325 -32 -2 c-18 0 -49 -3 -68 -5z"/>
    <path d="M17355 3838 c-3 -7 -6 -362 -8 -788 -2 -774 -3 -775 -25 -842 -38 -114 -115 -194 -229 -239 -47 -18 -78 -23 -163 -23 -92 0 -112 3 -160 25 -70 33 -124 89 -153 159 l-22 55 -3 828 -2 827 -336 0 -335 0 3 -887 4 -888 26 -99 c43 -157 96 -255 186 -345 117 -117 227 -167 420 -192 173 -22 388 18 520 98 90 55 156 115 211 194 l48 69 7 -38 c3 -20 6 -90 6 -155 l0 -117 328 2 327 3 0 1180 0 1180 -323 3 c-253 2 -323 0 -327 -10z"/>
  </g>
</svg>