<svg width="100px" viewBox="319.181 278.262 92.521 19.24" xmlns="http://www.w3.org/2000/svg">
  <path d="M 355.369 292.169 L 354.101 297.281 L 351.182 297.281 L 356.005 278.757 L 359.462 278.757 L 364 297.281 L 361.05 297.281 L 359.811 292.169 L 355.369 292.169 Z M 359.462 290.108 L 358.479 285.683 C 358.194 284.419 357.907 282.77 357.686 281.451 L 357.557 281.451 C 357.337 282.797 357.019 284.5 356.734 285.683 L 355.718 290.108 L 359.462 290.108 Z M 375.142 278.262 L 375.142 293.846 C 375.142 294.862 375.206 296.347 375.269 297.281 L 372.699 297.281 L 372.508 295.66 L 372.414 295.66 C 371.905 296.594 370.731 297.502 369.177 297.502 C 366.322 297.502 364.578 294.807 364.578 290.657 C 364.578 285.931 366.892 283.704 369.336 283.704 C 370.573 283.704 371.557 284.199 372.096 285.216 L 372.16 285.216 L 372.16 278.262 L 375.142 278.262 Z M 372.159 289.008 C 372.159 288.761 372.159 288.46 372.127 288.183 C 371.969 286.975 371.176 285.93 370.097 285.93 C 368.225 285.93 367.59 288.183 367.59 290.657 C 367.59 293.406 368.415 295.329 370.001 295.329 C 370.668 295.329 371.556 295.027 372.063 293.434 C 372.127 293.214 372.159 292.884 372.159 292.583 L 372.159 289.008 Z M 382.246 297.501 C 379.169 297.501 376.948 295.219 376.948 290.63 C 376.948 285.765 379.581 283.704 382.404 283.704 C 385.45 283.704 387.639 286.068 387.639 290.575 C 387.639 295.88 384.626 297.501 382.277 297.501 L 382.246 297.501 Z M 382.34 295.468 C 384.181 295.468 384.593 292.638 384.593 290.603 C 384.593 288.597 384.183 285.739 382.278 285.739 C 380.311 285.739 379.931 288.597 379.931 290.603 C 379.931 292.828 380.375 295.468 382.309 295.468 L 382.34 295.468 Z M 389.438 278.262 L 392.42 278.262 L 392.42 285.435 L 392.483 285.435 C 393.278 284.226 394.355 283.704 395.72 283.704 C 398.353 283.704 400.003 286.288 400.003 290.383 C 400.003 295.165 397.75 297.501 395.212 297.501 C 393.69 297.501 392.833 296.786 392.165 295.605 L 392.039 295.605 L 391.881 297.281 L 389.31 297.281 C 389.374 296.374 389.438 294.862 389.438 293.846 L 389.438 278.262 Z M 392.42 292.553 C 392.42 292.857 392.45 293.159 392.548 293.378 C 393.023 295.001 393.944 295.329 394.546 295.329 C 396.323 295.329 396.988 293.297 396.988 290.548 C 396.988 287.992 396.289 285.93 394.513 285.93 C 393.529 285.93 392.738 286.946 392.514 287.909 C 392.45 288.184 392.42 288.542 392.42 288.816 L 392.42 292.553 Z M 404.405 291.124 C 404.436 294.561 406.149 295.412 407.957 295.412 C 409.036 295.412 409.955 295.192 410.622 294.918 L 411.066 296.786 C 410.146 297.198 408.75 297.419 407.387 297.419 C 403.516 297.419 401.485 294.891 401.485 290.766 C 401.485 286.397 403.801 283.704 407.005 283.704 C 410.21 283.704 411.702 286.37 411.702 289.724 C 411.702 290.382 411.669 290.794 411.639 291.152 L 404.405 291.124 Z M 408.878 289.283 C 408.91 286.92 407.957 285.655 406.784 285.655 C 405.228 285.655 404.53 287.607 404.436 289.283 L 408.878 289.283 Z" fillRule="evenodd" clipRule="evenodd" style=""/>
  <path fillRule="evenodd" clipRule="evenodd" d="M 334.371 278.805 L 343.281 278.805 L 343.281 297.281 L 334.371 278.805 Z M 328.096 278.805 L 319.181 278.805 L 319.181 297.281 L 328.096 278.805 Z M 331.235 285.615 L 336.912 297.281 L 333.193 297.281 L 331.494 293.564 L 327.34 293.564 L 331.235 285.615 Z" style=""/>
</svg>