<?xml version="1.0" encoding="utf-8"?>
<svg viewBox="125.371 125.782 193 31" xmlns="http://www.w3.org/2000/svg">
  <g transform="matrix(0.1, 0, 0, -0.1, 88.370651, 235.782501)" fill="#000000" stroke="none">
    <path d="M456 1068 c-7 -18 -30 -70 -50 -115 -20 -45 -36 -84 -36 -87 0 -13 48 -5 54 9 8 21 95 21 110 -1 7 -9 22 -14 33 -12 21 3 20 8 -29 121 -28 64 -54 117 -59 117 -5 0 -15 -15 -23 -32z m41 -103 c11 -34 11 -35 -18 -35 -33 0 -32 -2 -18 39 14 40 23 39 36 -4z"/>
    <path d="M620 980 l0 -120 25 0 25 0 0 120 0 120 -25 0 -25 0 0 -120z"/>
    <path d="M950 980 l0 -120 25 0 c24 0 25 2 25 64 0 58 2 65 22 72 31 10 48 -19 48 -83 0 -46 3 -53 20 -53 18 0 20 7 20 73 0 90 -17 113 -75 104 -34 -6 -35 -5 -35 29 0 30 -3 34 -25 34 l-25 0 0 -120z"/>
    <path d="M1392 1084 c-27 -19 -29 -64 -4 -86 9 -9 33 -24 52 -33 52 -26 60 -43 34 -69 -21 -22 -56 -20 -87 4 -33 26 -44 10 -12 -20 15 -14 36 -22 60 -22 79 0 102 76 35 119 -66 42 -82 57 -75 75 10 26 43 32 72 13 34 -22 55 -4 22 19 -30 20 -68 20 -97 0z"/>
    <path d="M720 915 l0 -125 25 0 c22 0 25 4 25 40 0 38 1 39 26 30 75 -29 139 54 103 133 -19 41 -89 62 -118 35 -11 -10 -14 -10 -18 0 -3 6 -13 12 -24 12 -18 0 -19 -8 -19 -125z m124 69 c32 -31 14 -84 -29 -84 -62 0 -60 98 2 100 6 0 19 -7 27 -16z"/>
    <path d="M1179 1021 c-32 -26 -15 -48 24 -30 30 14 57 6 57 -16 0 -10 -10 -15 -33 -15 -70 0 -103 -62 -51 -97 21 -13 32 -14 54 -6 16 6 40 8 54 6 l26 -5 0 71 c0 58 -4 75 -20 91 -26 26 -80 26 -111 1z m79 -108 c-4 -20 -35 -30 -50 -15 -15 15 0 32 28 32 19 0 25 -5 22 -17z"/>
    <path d="M1591 1014 c-25 -20 -31 -34 -31 -64 0 -73 60 -113 129 -84 27 11 32 17 23 26 -9 9 -15 9 -24 0 -18 -18 -63 -14 -81 6 -30 33 -20 41 51 44 65 3 67 4 64 28 -3 31 -45 70 -77 70 -13 0 -37 -12 -54 -26z m99 -23 c15 -30 14 -31 -45 -31 -38 0 -55 4 -55 13 0 39 81 53 100 18z"/>
    <path d="M1825 1031 c-11 -5 -26 -6 -32 -4 -10 4 -13 -16 -13 -81 0 -51 4 -86 10 -86 6 0 10 26 10 58 0 71 15 95 55 90 30 -3 30 -3 33 -75 2 -56 6 -73 17 -73 12 0 15 15 15 70 0 95 -30 126 -95 101z"/>
    <path d="M1998 1029 c-11 -6 -18 -22 -18 -39 0 -23 8 -33 43 -52 50 -28 56 -53 12 -52 -16 0 -38 4 -49 9 -31 14 -14 -18 19 -34 41 -20 80 2 80 44 0 24 -8 34 -40 52 -53 30 -52 49 3 46 45 -2 55 10 23 27 -25 13 -51 12 -73 -1z"/>
    <path d="M2178 1025 c-32 -18 -52 -72 -39 -106 21 -55 72 -77 127 -54 29 12 35 18 26 27 -9 9 -15 9 -24 0 -19 -19 -66 -14 -88 8 -33 33 -24 40 50 40 l70 0 0 29 c0 20 -9 36 -26 50 -31 24 -58 26 -96 6z m86 -37 c15 -24 5 -30 -53 -26 l-52 3 17 23 c19 27 71 27 88 0z"/>
    <path d="M518 813 c-198 -5 -196 -23 2 -23 127 0 150 2 150 15 0 8 -1 14 -2 13 -2 -1 -69 -4 -150 -5z"/>
  </g>
</svg>