<?xml version="1.0" encoding="utf-8"?>
<svg viewBox="126.743 177.438 190.023 14.566" xmlns="http://www.w3.org/2000/svg">
  <g transform="matrix(0.976151, 0, 0, 0.976151, 5.072487, 2.216638)" style="">
    <g transform="matrix(0.019693, 0, 0, -0.019693, 94.336082, 229.495758)" fill="#000000" stroke="none" style="">
      <path d="M10930 2526 c-208 -58 -332 -235 -300 -430 24 -151 140 -268 301 -305 65 -15 197 -13 263 4 67 17 186 77 212 106 16 18 15 20 -17 58 -19 22 -38 40 -42 40 -5 1 -23 -10 -41 -24 -17 -13 -59 -37 -91 -52 -52 -24 -72 -28 -150 -27 -113 0 -176 25 -239 95 -51 57 -71 117 -63 193 24 232 307 321 532 166 l47 -32 41 40 41 41 -23 25 c-34 36 -129 83 -202 101 -76 18 -206 18 -269 1z"/>
      <path d="M1909 2498 c-7 -13 -85 -158 -174 -323 -89 -165 -170 -315 -179 -332 l-17 -33 70 0 69 0 47 85 46 85 207 0 207 0 45 -85 45 -85 73 0 73 0 -45 83 c-25 45 -112 204 -194 352 l-148 270 -57 3 c-50 3 -57 0 -68 -20z m159 -300 l63 -118 -156 0 -157 0 50 93 c27 50 62 116 77 146 l27 54 17 -29 c9 -16 45 -82 79 -146z"/>
      <path d="M2650 2313 c0 -115 5 -237 11 -273 17 -110 70 -178 174 -227 56 -26 68 -28 195 -28 127 0 139 2 196 28 74 34 125 84 156 152 22 47 23 64 26 303 l3 252 -65 0 -64 0 -4 -237 c-3 -231 -4 -240 -28 -288 -37 -73 -94 -100 -215 -100 -111 0 -172 25 -213 88 l-27 40 -3 249 -3 248 -69 0 -70 0 0 -207z"/>
      <path d="M3710 2465 l0 -54 153 -3 152 -3 3 -297 2 -298 65 0 65 0 2 298 3 297 153 3 152 3 0 54 0 55 -375 0 -375 0 0 -55z"/>
      <path d="M5870 2165 l0 -355 65 0 65 0 2 271 3 272 160 -272 159 -271 37 0 37 0 159 270 c87 148 161 269 166 270 4 0 7 -121 7 -270 l0 -270 65 0 65 0 0 355 0 356 -92 -3 -93 -3 -151 -265 c-83 -146 -154 -265 -157 -265 -4 0 -75 119 -159 265 l-153 265 -92 3 -93 3 0 -356z"/>
      <path d="M7477 2458 c-78 -140 -347 -640 -347 -644 0 -2 32 -4 70 -4 l70 0 42 85 42 85 211 0 210 0 44 -85 44 -85 73 0 74 0 -38 68 c-20 37 -107 195 -193 352 l-157 285 -55 3 -55 3 -35 -63z m196 -290 l47 -88 -155 0 -155 0 41 83 c23 45 57 110 76 145 l36 63 31 -58 c18 -32 53 -97 79 -145z"/>
      <path d="M8100 2465 l0 -55 155 0 155 0 0 -300 0 -300 70 0 70 0 0 300 0 300 155 0 155 0 0 55 0 55 -380 0 -380 0 0 -55z"/>
      <path d="M9080 2465 l0 -55 155 0 155 0 0 -300 0 -300 70 0 70 0 0 300 0 300 155 0 155 0 0 55 0 55 -380 0 -380 0 0 -55z"/>
      <path d="M10236 2494 c-4 -16 -18 -30 -36 -37 l-30 -11 0 -318 0 -318 65 0 65 0 0 355 0 355 -29 0 c-23 0 -30 -5 -35 -26z"/>
      <path d="M 5069.977 2170.239 C 4994.639 2055.239 4983.44 2016.239 5020.091 1997.239 C 5060.814 1975.239 5083.212 1993.239 5154.478 2101.239 C 5192.147 2159.239 5222.69 2217.239 5222.69 2230.239 C 5222.69 2261.239 5204.364 2277.239 5169.749 2277.239 C 5145.315 2277.239 5133.098 2264.239 5069.977 2170.239 Z" style=""/>
    </g>
    <ellipse style="stroke-miterlimit: 1; stroke-dashoffset: -21px; stroke: rgb(0, 0, 0); stroke-width: 2px; opacity: 0.54; fill: rgba(255, 255, 255, 0); paint-order: fill;" cx="195.028" cy="186.921" rx="7.244" ry="6.871"/>
  </g>
</svg>