<?xml version="1.0" encoding="utf-8"?>
<svg viewBox="127.101 269.85 116.952 39.356" xmlns="http://www.w3.org/2000/svg">
  <g transform="matrix(0.048884, 0, 0, -0.048884, 91.436699, 321.671326)" fill="#000000" stroke="none" style="">
    <path d="M989 1036 c-67 -27 -101 -51 -150 -103 -102 -108 -136 -264 -88 -405 38 -114 106 -188 219 -242 59 -28 74 -31 160 -31 125 1 188 25 274 106 147 137 174 350 66 518 -47 73 -138 143 -214 165 -82 24 -199 21 -267 -8z m386 -166 c0 -23 -4 -25 -56 -28 l-56 -3 4 -42 c3 -29 -2 -53 -15 -79 l-19 -37 24 -23 c36 -34 53 -71 53 -119 0 -160 -235 -206 -353 -69 -36 42 -63 87 -56 94 12 13 58 -9 73 -35 10 -17 36 -43 58 -60 33 -23 51 -29 95 -29 91 0 133 33 133 106 0 31 -8 45 -49 85 -39 40 -55 49 -83 49 -35 0 -58 14 -58 37 0 9 19 13 69 13 73 0 81 5 81 55 0 54 -3 55 -136 55 -115 0 -124 1 -138 22 -8 12 -13 25 -10 30 3 5 103 7 222 6 l217 -3 0 -25z m-180 -80 c0 -24 -2 -25 -79 -28 -70 -3 -81 0 -102 19 -13 12 -21 26 -18 31 3 5 49 7 102 6 96 -3 97 -3 97 -28z m180 0 c0 -22 -5 -25 -43 -28 -44 -3 -61 11 -48 44 4 11 17 14 48 12 38 -3 43 -6 43 -28z"/>
    <path d="M2190 790 c0 -67 -1 -70 -19 -60 -96 51 -197 -85 -151 -204 24 -63 96 -87 149 -50 22 16 24 16 33 0 5 -9 22 -16 38 -16 l30 0 0 200 0 200 -40 0 -40 0 0 -70z m-16 -116 c12 -5 16 -21 16 -68 0 -68 -10 -86 -51 -86 -33 0 -54 44 -46 96 10 57 35 76 81 58z"/>
    <path d="M1720 635 c0 -110 12 -156 45 -169 30 -11 80 -6 103 10 20 14 23 14 28 0 4 -10 19 -16 40 -16 l35 0 -3 138 -3 137 -37 3 -38 3 0 -99 c0 -110 -8 -126 -57 -120 l-28 3 -5 105 -5 105 -37 3 -38 3 0 -106z"/>
    <path d="M2364 726 c-40 -18 -47 -29 -30 -52 13 -17 18 -17 48 -6 48 17 66 15 78 -7 17 -32 12 -38 -37 -46 -84 -12 -113 -36 -113 -91 0 -56 75 -82 140 -49 25 13 29 13 34 0 3 -8 17 -15 31 -15 l25 0 0 111 c0 109 0 111 -29 140 -24 23 -38 29 -73 29 -24 -1 -57 -7 -74 -14z m106 -176 c0 -23 -32 -43 -62 -38 -48 7 -19 58 33 58 22 0 29 -5 29 -20z"/>
    <path d="M2632 720 c-39 -18 -42 -21 -30 -40 13 -21 14 -21 86 -3 26 6 52 -12 52 -37 0 -14 -11 -20 -50 -25 -93 -13 -141 -84 -90 -135 25 -25 95 -27 128 -4 20 14 23 14 28 0 4 -10 18 -16 35 -16 l29 0 0 96 c0 66 -5 106 -15 129 -28 57 -95 71 -173 35z m108 -168 c0 -25 -19 -42 -47 -42 -28 0 -40 24 -23 45 18 22 70 20 70 -3z"/>
    <path d="M2877 733 c-4 -3 -7 -66 -7 -140 l0 -133 40 0 40 0 0 100 c0 98 1 101 26 112 48 22 59 4 62 -111 l3 -101 40 0 41 0 -4 116 c-3 113 -4 116 -31 140 -33 28 -82 32 -115 8 -20 -14 -24 -14 -38 0 -16 16 -46 21 -57 9z"/>
  </g>
</svg>